<svg width="750" height="750" viewBox="0 0 750 750" fill="none" xmlns="http://www.w3.org/2000/svg">
<rect width="750" height="750" fill="white"/>
<path fill-rule="evenodd" clip-rule="evenodd" d="M404.998 520.105C430.165 503.158 476.748 500.205 468.203 463.225C459.854 425.837 428.472 424.466 370.556 390.717C314.251 353.628 328.454 327.721 245.385 324.237C166.149 324.27 190.269 438.443 131.893 420.812C73.5177 403.182 139.162 549.003 149.545 559.797C167.806 578.781 215.894 601.431 239.35 598.221C257.163 595.845 314.47 582.659 342.527 568.973C369.935 556.201 372.897 542.853 404.998 520.105Z" fill="#8ea8da"/>
<path d="M629.164 152.896L629.331 152.901C630.729 152.983 631.795 154.184 631.713 155.582L631.433 160.42L631.255 163.657C629.398 198.02 624.988 227.228 626.024 251.274L626.183 254.755C627.427 280.666 634.036 317.298 640.719 372.65C641.306 373.061 641.715 373.716 641.79 374.484C641.925 375.878 640.904 377.117 639.51 377.253C606.841 380.418 576.444 382.525 548.319 383.574L544.476 383.711L540.083 383.854C511.649 384.736 471.623 385.165 419.994 385.139C418.593 385.139 417.459 384.003 417.459 382.602C417.459 381.933 399.425 160.196 399.425 160.196C399.425 160.196 628.471 152.9 629.164 152.896Z" fill="white"/>
<path d="M584.96 570.704L586.554 570.868C609.222 573.239 624.103 576.66 630.968 580.961L631.396 581.238C636.667 584.742 636.002 588.39 628.425 594.213C620.141 600.58 599.78 606.58 569.314 610.242C531.174 614.826 479.897 615.566 415.502 611.579L408.751 611.159C371.574 608.904 343.051 608.296 290.26 608.01L275.688 607.926C244.259 607.706 230.9 607.273 218.005 605.89L216.779 605.754C200.612 603.906 191.677 600.527 188.683 595.232L188.574 595.032C188.517 594.925 188.517 594.927 188.951 594.486C189.82 593.605 191.604 592.579 194.257 591.509L194.944 591.239C200.694 589.027 209.782 586.759 222.154 584.467L224.497 584.04C249.196 579.604 286.029 575.094 334.971 570.517L342.842 569.789L349.562 569.544C459.693 565.597 538.18 565.987 584.96 570.704Z" fill="white"/>
<path fill-rule="evenodd" clip-rule="evenodd" d="M533.904 153.425C534.852 152.394 536.456 152.327 537.487 153.275C538.518 154.223 538.585 155.828 537.637 156.859C537.637 156.859 422.267 288.006 421.218 284.357C420.64 282.348 469.158 224.055 476.79 216.197L478.906 214.057C482.487 210.341 500.206 190.063 533.904 153.425Z" fill="#E7EAEE"/>
<path fill-rule="evenodd" clip-rule="evenodd" d="M475.843 182.196C476.991 181.394 478.572 181.675 479.374 182.824C480.176 183.972 479.895 185.553 478.746 186.355C474.921 189.026 415.255 249.216 413.988 248.737C412.721 248.257 418.836 241.106 418.836 241.106C422.745 237.016 457.667 199.904 457.667 199.904C460.601 196.773 463.311 193.951 465.905 191.337C468.473 188.749 471.784 185.03 475.843 182.196Z" fill="#E7EAEE"/>
<path fill-rule="evenodd" clip-rule="evenodd" d="M534.235 570.704L535.83 570.868C558.497 573.239 573.379 576.66 580.243 580.961L580.671 581.238C585.942 584.742 585.277 588.39 577.701 594.213C569.417 600.58 479.897 606.435 415.502 602.448L408.751 602.029C371.574 599.774 343.051 593.078 290.26 592.792L275.688 592.708C244.259 592.489 230.9 607.273 218.005 605.89L216.779 605.754C200.612 603.906 191.677 600.527 188.683 595.232L188.574 595.032C188.517 594.925 188.517 594.927 188.951 594.486C189.82 593.605 191.604 592.579 194.257 591.509L194.944 591.239C200.694 589.027 209.782 586.759 222.154 584.467L224.497 584.04C249.196 579.604 286.029 575.094 334.971 570.517L342.842 569.789L349.562 569.544C459.693 565.597 487.455 565.987 534.235 570.704Z" fill="#E7EAEE"/>
<path d="M233.72 381.081C234.509 383.151 261.459 386.397 276.229 395.128C281.893 398.476 286.181 412.964 285.903 413.238C279.207 419.842 275.569 423.208 271.964 425.236C259.293 432.366 249.527 430.513 240.072 429.021C228.706 427.228 221.953 414.75 226.384 404.39C227.079 402.767 228.828 400.395 231.725 397.059L232.11 396.62C232.099 396.501 232.1 396.379 232.115 396.255C232.247 395.137 232.264 393.99 232.164 392.813L231.939 390.702C231.675 388.344 231.163 384.341 230.402 382.346C230.053 381.43 230.512 380.404 231.428 380.055C232.344 379.705 233.37 380.165 233.72 381.081Z" fill="white"/>
<path d="M295.949 407.52C295.947 407.094 296.054 406.661 296.28 406.263C296.674 405.572 297.343 405.137 298.071 405.016C298.241 404.863 298.357 404.809 298.423 404.871L298.533 404.982C298.943 404.99 299.358 405.097 299.739 405.315L307.199 409.552C322.663 418.393 339.285 431.541 340.889 441.525C342.706 452.838 330.861 511.709 329.492 511.412C328.123 511.116 302.464 569.425 302.449 569.583C302.398 570.114 279.588 570.96 255.592 573.528C247.205 574.426 268.985 545.167 277.178 524.483C291.23 489.01 295.949 407.52 295.949 407.52Z" fill="white"/>
<path d="M479.95 436.45C470.896 434.476 460.378 435.467 448.358 439.476C438.521 442.758 433.134 447.351 431.791 453.222L431.715 453.573L432.101 453.731C440.133 456.971 447.629 457.791 454.642 456.238L455.154 456.12C460.011 454.96 463.956 452.238 468.639 447.398L469.286 446.721C470.388 445.546 472.987 442.699 473.306 442.357C474.97 440.575 476.242 439.346 477.528 438.342L477.807 438.128C478.458 437.638 479.25 437.164 480.185 436.702L480.465 436.566L479.95 436.45Z" fill="white"/>
<path d="M390.837 422.503C384.395 420.503 376.753 420.27 367.9 421.842L367.484 421.917L367.575 422.1C371.492 429.957 375.044 434.792 378.011 436.546L378.196 436.651C381.179 438.299 388.288 438.417 399.19 436.791L400.803 436.541L400.763 436.406C400.722 436.25 400.696 436.089 400.685 435.924L400.68 435.757C400.68 428.828 397.53 424.582 390.837 422.503Z" fill="white"/>
<path d="M317.321 385.745C317.14 387.189 317.751 392.493 315.711 394.942C314.903 395.913 312.971 396.608 311.711 395.996C311.154 395.725 312.891 393.305 313.946 390.569C314.354 389.512 313.638 388.234 313.946 387.225C314.216 386.341 315.523 385.705 315.711 385.041C316.012 383.985 317.44 384.792 317.321 385.745Z" fill="white"/>
<path d="M320.849 379.549C320.668 380.993 324.952 387.715 322.813 389.87C319.176 393.532 315.681 387.109 316.736 384.373C317.144 383.316 317.166 382.039 317.474 381.029C317.744 380.146 320.968 378.596 320.849 379.549Z" fill="white"/>
<path d="M360.38 485.706C359.591 488.668 358.921 506.052 362.694 515.866C364.074 519.457 366.101 522.089 368.842 523.111C371.147 523.933 373.544 524.444 375.991 524.784C381.265 525.51 421.566 528.938 439.658 526.574C457.751 524.209 456.727 523.989 464.996 522.524C468.998 521.814 473.573 521.059 477.663 519.454C480.677 518.277 483.427 516.64 485.581 514.313C487.51 512.233 488.702 508.696 489.057 504.741C489.509 499.715 488.739 493.068 487.984 489.723C487.984 489.536 487.943 489.466 487.984 489.407C488.171 489.133 485.734 487.775 477.663 487.442C463.827 486.871 442.248 487.952 421.342 487.735C392.814 487.439 365.548 484.826 361.028 485.302C360.613 485.345 360.396 485.649 360.38 485.706Z" fill="white"/>
<path d="M230.789 392.915C232.19 392.906 233.334 394.033 233.344 395.434C233.345 395.581 233.334 395.724 233.311 395.864L233.529 395.724C234.746 394.972 236.252 394.592 235.93 396.432C235.481 398.999 229.055 401.984 229.055 406.923C229.055 414.254 231.882 421.271 242.051 424.205C270.531 432.419 284.597 417.858 289.862 411.578C289.86 411.152 289.967 410.719 290.193 410.321C290.587 409.63 291.256 409.195 291.984 409.074C292.154 408.921 292.27 408.867 292.336 408.929L292.446 409.04C292.856 409.048 293.271 409.155 293.653 409.373L301.112 413.61C316.576 422.451 333.198 435.599 334.802 445.583C336.619 456.896 324.774 515.767 323.405 515.47C322.036 515.174 296.377 573.483 296.362 573.641C296.294 574.358 254.778 575.647 224.832 580.97C205.196 584.46 192.417 591.005 192.003 591.375C190.96 592.31 189.747 593.928 188.813 592.884C182.54 585.878 180.868 566.187 183.291 537.207L182.022 537.078C156.068 534.456 143.265 527.156 144.137 510.72C146.275 470.396 157.627 438.798 170.832 419.231C182.558 401.859 201.288 393.126 230.789 392.915Z" fill="white"/>
<path fill-rule="evenodd" clip-rule="evenodd" d="M289.862 411.578C289.86 411.152 289.967 410.719 290.193 410.321C290.587 409.63 291.256 409.195 291.984 409.074C292.154 408.921 292.27 408.867 292.336 408.929L292.446 409.04C292.856 409.048 293.271 409.155 293.653 409.373L301.112 413.61C316.576 422.451 333.198 435.599 334.802 445.583C336.619 456.896 324.774 515.767 323.405 515.47C322.036 515.174 296.377 573.483 296.362 573.641C296.311 574.172 273.501 575.018 249.505 577.586C241.118 578.484 262.898 549.225 271.091 528.541C285.143 493.068 289.862 411.578 289.862 411.578Z" fill="#E7EAEE"/>
<path d="M291.195 410.751C291.244 412.15 290.059 413.323 288.658 413.287C281.661 413.11 280.549 401.078 281.22 401.03C282.149 400.962 283.736 406.677 286.861 408.759C289.243 410.347 291.058 406.894 291.195 410.751Z" fill="white"/>
<path d="M227.778 378.61C228.746 377.451 230.554 378.478 231.186 379.728C231.818 380.978 231.317 382.504 230.068 383.136C223.689 386.363 215.197 385.165 209.965 380.687C200.876 372.908 200.504 352.718 200.504 346.692C200.504 345.888 210.874 346.837 215.176 352.464C222.805 362.444 226.531 380.104 227.778 378.61Z" fill="white"/>
<path d="M227.099 323.78L227.196 323.245C227.278 322.771 227.276 322.256 227.033 319.709L226.222 311.736C226.069 310.216 225.946 308.904 225.839 307.626L225.755 306.586C225.025 297.195 225.377 291.858 227.912 289.377C235.07 282.374 239.024 282.525 246.479 284.941L248.041 285.449C251.354 286.497 253.014 285.686 255.279 285.154L255.935 285.006C261.187 283.855 266.661 283.642 272.955 284.189C276.636 284.509 278.914 284.812 284.757 285.816L291.655 287.024C295.972 287.784 298.882 288.257 301.96 288.677L302.639 288.764C307.573 289.362 311.589 289.004 316.436 287.91C316.536 287.888 319.146 287.272 320.169 287.052L320.787 286.929C321.747 286.75 322.559 286.656 323.316 286.656L323.436 286.59C330.833 282.752 337.873 270.763 337.292 261.148C336.572 249.217 325.239 241.645 300.902 241.495L299.717 241.49C295.698 241.447 292.761 240.781 284.323 238.196L280.159 236.91C272.932 234.696 268.578 233.689 263.914 233.376C263.111 233.322 262.324 233.295 261.552 233.295C229.221 233.295 197.372 260.842 192.989 286.59C192.193 291.265 195.798 311.888 197.102 322.141C197.102 322.141 209.661 322.279 215.776 323.161C216.359 323.245 221.316 334.05 224.319 334.05C227.033 334.05 227.099 323.78 227.099 323.78Z" fill="white"/>
<path d="M245.693 289.006C250.199 290.488 252.674 290.909 256.082 290.173L257.334 289.89C265.415 288.124 271.602 288.657 288.89 291.688L293.036 292.414C296.239 292.964 298.692 293.351 301.275 293.703C306.964 294.479 311.56 294.153 316.884 293.006L322.317 291.79C323.253 291.595 323.138 291.669 323.476 291.723L323.632 291.742C324.344 291.808 326.758 292.171 327.325 293.81C330.818 303.903 331.833 327.991 328.123 347.821C323.087 374.747 308.635 393.204 287.981 398.811C256.508 407.355 232.846 391.121 216.466 349.196L215.962 347.906L214.604 347.632L213.635 347.431C198.044 344.09 192.778 338.098 198.048 328.343C200.688 323.457 204.304 321.943 207.318 322.965C210.985 324.209 215.605 329.003 220.884 337.375L220.943 337.464C223.259 340.814 226.472 339.53 228.105 335.974C229.123 333.755 230.091 330.043 231.067 324.735L231.263 323.65C231.428 322.634 231.351 321.822 230.501 313.619L230.2 310.681C230.092 309.596 230.001 308.618 229.92 307.674L229.88 307.204C229.546 303.208 229.424 300.025 229.549 297.522C229.677 294.98 230.085 293.355 230.445 293.003L231.048 292.422C236.284 287.465 239.252 286.969 244.609 288.654L245.693 289.006Z" fill="white"/>
<path fill-rule="evenodd" clip-rule="evenodd" d="M328.123 347.821C323.087 374.747 308.635 393.204 287.981 398.811C281.971 400.443 299.379 393.991 308.549 382.393C321.123 366.49 328.197 342.938 329.362 335.806C332.888 314.228 331.833 327.991 328.123 347.821Z" fill="#E7EAEE"/>
<path fill-rule="evenodd" clip-rule="evenodd" d="M228.105 335.974C229.123 333.755 230.091 330.043 231.067 324.735L231.263 323.65C231.428 322.634 231.351 321.822 230.501 313.619L230.2 310.681C230.092 309.596 230.001 308.618 229.92 307.674L229.88 307.204C229.546 303.208 229.424 300.025 229.549 297.522C229.677 294.98 230.085 293.355 230.445 293.003L231.048 292.422C236.284 287.465 239.252 286.969 244.609 288.654L245.693 289.006C250.199 290.488 252.674 290.909 256.082 290.173L257.334 289.89C265.415 288.124 271.602 288.657 288.89 291.688L293.036 292.414C296.239 292.964 298.692 293.351 301.275 293.703C306.964 294.479 311.56 294.153 316.884 293.006L322.317 291.79C323.253 291.595 323.138 291.669 323.476 291.723L323.632 291.742C324.344 291.808 326.758 292.171 327.325 293.81C327.325 293.81 325.125 295.593 323.476 295.714C309.105 296.772 298.656 299.28 287.548 300.343C270.034 302.02 254.37 302.595 245.693 307.204C241.5 309.431 237.048 332.393 231.46 340.176C228.294 344.585 228.105 335.974 228.105 335.974Z" fill="#E7EAEE"/>
<path fill-rule="evenodd" clip-rule="evenodd" d="M360.665 515.866C362.045 519.457 364.072 522.089 366.813 523.111C369.118 523.933 371.515 524.444 373.962 524.784C379.236 525.51 419.537 528.938 437.629 526.574C455.722 524.209 454.698 523.989 462.967 522.524C466.969 521.814 471.544 521.059 475.634 519.454C478.648 518.277 481.398 516.64 483.552 514.313C485.481 512.233 486.673 508.696 487.028 504.741C487.48 499.715 486.71 493.068 485.955 489.723C485.788 488.825 482.775 489.475 482.941 490.373C483.393 493.483 483.534 499.655 482.945 504.222C482.582 507.052 482.027 509.682 480.639 511.175C478.899 513.048 476.656 514.325 474.224 515.279C470.374 516.796 466.062 517.506 462.297 518.189C454.139 519.678 446.518 521.61 412.724 522.524C407.243 522.672 379.795 521.255 374.481 520.492C372.293 520.181 370.148 519.73 368.088 518.987C365.684 518.173 364.42 515.191 363.296 511.846C361.94 507.803 358.791 493.362 360.665 490.258C361.363 489.101 366.403 489.353 369.557 489.687C379.661 490.757 398.199 491.189 416.187 491.388C435.99 491.607 483.211 491.617 483.211 490.709C483.211 489.891 485.089 489.688 485.955 489.723C486.235 489.734 484.384 487.442 475.634 487.442C461.693 487.442 440.219 487.952 419.313 487.735C390.785 487.439 363.519 484.826 358.999 485.302C358.903 485.312 358.812 485.319 358.727 485.324C355.42 485.519 356.892 506.052 360.665 515.866Z" fill="#00160A"/>
<path fill-rule="evenodd" clip-rule="evenodd" d="M367.359 496.09C367.5 495.06 368.693 492.813 369.182 493.993C370.052 496.09 369.166 510.093 377.37 511.548C378.747 511.792 382.369 512.315 382.369 513.471C382.369 514.626 381.809 516.37 378.804 515.554C373.503 514.115 370.47 511.147 368.612 506.435C367.29 503.084 366.939 499.157 367.359 496.09Z" fill="#00160A"/>
<path fill-rule="evenodd" clip-rule="evenodd" d="M184.457 461.615L184.46 461.639C184.461 461.832 184.699 462.095 184.741 462.663C184.921 465.079 183.896 470.766 183.714 472.562C183.239 476.768 182.409 482.028 182.26 487.054C182.164 490.301 182.335 493.448 183.258 496.116C185.178 501.862 189.608 505.395 194.961 507.654C199.749 509.678 205.291 510.567 210.606 511.205C214.484 511.667 218.225 512.053 221.543 512.241C222.11 512.241 222.57 512.703 222.57 513.27C222.57 513.838 222.11 514.294 221.543 514.294C218.153 514.487 214.302 514.721 210.319 514.499C204.62 514.183 198.712 513.042 193.593 510.924C187.272 508.303 182.168 504.003 179.914 497.228C178.932 494.168 178.701 490.576 178.962 486.884C179.323 481.771 180.566 476.476 181.302 472.217C181.633 470.432 182.229 464.646 183.151 462.399C183.602 461.294 184.381 461.159 184.407 461.223C184.514 461.329 184.531 461.492 184.457 461.615Z" fill="#00160A"/>
<path fill-rule="evenodd" clip-rule="evenodd" d="M235.584 503.011L232.509 503.501C231.541 503.704 230.439 504.096 229.517 504.698C228.835 505.144 228.275 505.722 227.895 506.397C227.718 506.722 227.616 507.047 227.544 507.372C227.411 507.985 227.448 508.604 227.34 509.261C227.254 509.78 227.223 510.293 227.241 510.806C227.265 511.509 227.383 512.205 227.456 512.911C227.617 514.027 227.668 515.097 228.104 516.083C228.3 516.527 228.565 516.922 228.902 517.327C229.063 517.615 229.427 517.72 229.715 517.559C230.004 517.399 230.108 517.035 229.947 516.747C229.947 516.747 227.949 507.479 230.383 505.943C232.817 504.406 234.167 504.606 234.879 504.43C235.171 504.358 235.805 503.578 235.841 503.399C235.877 503.221 235.762 503.047 235.584 503.011Z" fill="#00160A"/>
<path fill-rule="evenodd" clip-rule="evenodd" d="M235.481 503.362L235.818 504.058C235.926 504.511 235.943 505.036 235.955 505.54C235.965 505.984 236.014 506.42 235.735 506.785C235.584 506.936 235.584 507.181 235.735 507.332C235.886 507.483 236.13 507.483 236.281 507.332C236.776 506.99 237.078 506.506 237.169 505.94C237.286 505.206 236.97 504.408 236.695 503.766C236.604 503.561 236.255 503.057 235.897 502.847C235.611 502.681 235.335 502.639 235.117 502.812C234.966 502.912 234.924 503.116 235.024 503.269C235.124 503.421 235.329 503.463 235.481 503.362Z" fill="#00160A"/>
<path fill-rule="evenodd" clip-rule="evenodd" d="M235.071 506.895C234.806 507.047 234.56 507.201 234.464 507.245C233.531 507.67 232.997 508.598 232.853 509.71C232.68 511.059 233.174 512.624 233.461 513.585C233.544 513.917 233.881 514.119 234.212 514.036C234.544 513.953 234.746 513.617 234.663 513.285C234.444 512.297 234.206 510.627 234.445 509.345C234.536 508.861 234.612 508.405 234.985 508.114C234.985 508.114 235.25 506.793 235.071 506.895Z" fill="#00160A"/>
<path fill-rule="evenodd" clip-rule="evenodd" d="M228.589 508.549C229.148 509.176 229.092 510.138 228.464 510.697C227.51 511.547 226.673 512.195 225.941 512.645L225.584 512.856C224.959 513.21 224.128 513.617 223.081 514.086C222.951 514.144 221.741 514.527 221.3 514.185C221.067 514.003 220.809 513.789 220.675 513.483C220.612 513.34 220.826 513.059 221.219 512.7C221.873 512.102 223.615 511.78 224.819 511.026C226.789 509.793 228.306 508.231 228.589 508.549Z" fill="#00160A"/>
<path fill-rule="evenodd" clip-rule="evenodd" d="M233.992 522.902C234.588 522.309 235.551 522.31 236.144 522.905C238.746 525.514 239.521 528.014 237.834 530.073C236.756 531.388 235.222 532.538 233.047 533.409C232.032 533.815 232.155 534.006 229.508 534.587C228.687 534.767 227.876 534.248 227.695 533.427C227.515 532.606 228.035 531.795 228.856 531.615L229.921 531.375C231.83 530.936 234.72 529.07 235.479 528.144C235.912 527.616 235.627 526.697 233.989 525.054C233.396 524.459 233.397 523.496 233.992 522.902Z" fill="#00160A"/>
<path fill-rule="evenodd" clip-rule="evenodd" d="M273.112 498.368C273.467 505.358 273.611 509.555 273.545 510.959C273.361 514.774 272.664 519.665 270.976 523.924C269.754 527.007 267.978 529.722 265.704 531.594C264.16 532.799 260.893 535.149 251.208 534.479C231.761 533.133 234.85 500.159 234.97 499.68C235.09 499.2 235.595 497.339 236.076 497.456C236.949 497.597 233.566 531.847 250.688 532.08C252.017 532.098 253.326 531.916 254.666 531.741C256.523 531.6 258.477 531.179 260.285 530.477C261.418 530.038 262.495 529.482 263.416 528.727C265.305 527.265 266.705 525.036 267.819 522.584C269.575 518.717 270.853 514.286 271.27 510.77C271.491 508.933 271.98 497.778 271.98 497.778C272.237 496.894 273.102 498.173 273.112 498.368Z" fill="#00160A"/>
<path fill-rule="evenodd" clip-rule="evenodd" d="M254.168 494.362L255.039 494.367C265 494.465 272.936 496.242 272.936 498.42C272.936 500.661 269.187 504.913 258.822 504.913L257.951 504.909C244.024 505.49 235.399 500.598 235.399 498.42C235.399 496.179 243.802 494.362 254.168 494.362Z" fill="#00160A"/>
<path fill-rule="evenodd" clip-rule="evenodd" d="M254.168 495.377L253.324 495.381C244.088 495.48 236.414 497.176 236.414 498.42C236.414 499.702 244.56 502.478 254.168 502.478L255.011 502.474C264.248 502.375 271.921 499.665 271.921 498.42C271.921 497.138 263.775 495.377 254.168 495.377Z" fill="white"/>
<path fill-rule="evenodd" clip-rule="evenodd" d="M268.756 363.409C269.221 364.058 269.795 364.656 270.472 365.178C271.188 365.736 272.019 366.084 272.848 366.328C274.465 366.761 276.062 367.195 277.712 367.464C282.795 368.293 295.53 369.684 296.782 369.918C297.626 370.165 298.511 369.678 298.756 368.832C299 367.986 298.512 367.1 297.668 366.853C296.395 366.343 295.136 365.862 293.821 365.524C291.874 365.022 289.875 364.787 287.882 364.556C284.486 364.153 281.078 363.817 277.665 363.606C276.215 363.521 274.785 363.543 273.335 363.445C272.886 363.427 272.435 363.362 271.988 363.217C271.224 362.976 270.487 362.69 269.866 362.268L268.211 361.029C268.031 361.026 267.883 361.177 267.884 361.36C267.884 361.543 268.63 363.214 268.756 363.409Z" fill="#00160A"/>
<path fill-rule="evenodd" clip-rule="evenodd" d="M284.669 375.547C285.531 376.477 286.949 377.256 288.512 377.49C290.098 377.718 291.728 377.332 292.83 376.717C293.169 376.548 293.306 376.132 293.137 375.793C292.967 375.454 292.554 375.319 292.215 375.489C291.46 375.816 290.452 375.869 289.417 375.822C288.981 375.799 288.542 375.74 288.106 375.705C286.967 375.6 285.882 375.512 285.089 375.038C284.949 374.927 284.74 374.945 284.625 375.085C284.509 375.225 284.529 375.43 284.669 375.547Z" fill="#00160A"/>
<path fill-rule="evenodd" clip-rule="evenodd" d="M629.331 152.901C630.729 152.983 631.795 154.184 631.713 155.582L631.433 160.42C629.425 196.189 628.956 226.476 630.024 251.274L630.073 252.38C631.251 278.443 634.129 315.187 640.72 372.65C641.306 373.061 641.715 373.716 641.79 374.484C641.925 375.878 640.904 377.117 639.51 377.253C606.841 380.418 576.444 382.525 548.319 383.574L544.476 383.711C515.831 384.69 474.34 385.166 419.994 385.139C418.593 385.139 417.458 384.003 417.459 382.602C417.459 381.201 418.596 380.066 419.996 380.067L431.433 380.065C481.212 380.022 519.415 379.527 546.033 378.581L550.136 378.428C576.613 377.398 605.107 375.432 635.617 372.53C634.539 361.693 626.135 276.787 625.042 253.402L625.005 252.609C623.816 226.31 624.365 193.871 626.649 155.283C626.728 153.94 627.838 152.904 629.164 152.896L629.331 152.901ZM396.575 158.019C397.963 157.833 399.239 158.808 399.425 160.196L400.344 167.107C405.878 209.028 409.543 242.351 411.338 267.086L411.508 269.478C413.327 295.753 414.459 333.88 414.908 383.876C414.921 385.277 413.796 386.422 412.395 386.435C410.994 386.448 409.849 385.322 409.836 383.922L409.764 376.525C409.289 331.706 408.237 296.932 406.609 272.214L406.447 269.829C404.637 243.678 400.621 207.353 394.397 160.869C394.212 159.481 395.186 158.204 396.575 158.019Z" fill="#00160A"/>
<path fill-rule="evenodd" clip-rule="evenodd" d="M227.434 392.942C228.835 392.932 229.979 394.059 229.989 395.46C229.999 396.86 228.871 398.004 227.471 398.014C199.502 398.213 180.327 406.28 169.653 422.095C157.002 440.839 145.073 471.427 145.847 511.014C146.423 540.469 208.366 535.794 223.218 535.006C225.201 534.901 226.552 535.956 226.537 536.114C226.424 537.301 225.482 538.279 224.251 538.396C206.153 540.113 190.94 538.343 178.667 537.104C152.713 534.482 139.91 527.182 140.782 510.745C142.92 470.422 154.272 438.823 167.477 419.257C179.203 401.885 197.933 393.152 227.434 392.942Z" fill="#00160A"/>
<path fill-rule="evenodd" clip-rule="evenodd" d="M227.912 289.377C225.377 291.858 225.025 297.195 225.755 306.586L225.839 307.626C225.946 308.904 226.069 310.216 226.222 311.736L227.033 319.709C227.276 322.257 227.278 322.771 227.196 323.245L227.099 323.78C226.405 327.56 224.711 331.45 224.071 333.373L223.936 333.764L223.859 333.647C218.524 325.595 213.631 319.75 208.947 318.162C203.228 316.222 198.296 319.091 194.6 325.932L194.386 326.335C187.658 339.213 195.08 347.182 212.912 351.226L213.259 351.303L213.8 352.642C231.036 394.846 255.696 412.831 289.31 403.706C312.194 397.494 325.723 377.393 331.08 348.754C334.943 328.105 333.891 303.135 330.09 292.151C328.921 288.773 326.998 286.96 324.101 286.692C323.114 286.6 322.085 286.687 320.787 286.929L320.169 287.052C319.146 287.272 316.536 287.888 316.437 287.91C311.589 289.004 307.573 289.362 302.639 288.764L301.96 288.677C298.882 288.257 295.972 287.784 291.655 287.024L284.757 285.816C278.914 284.812 276.636 284.509 272.955 284.189C266.661 283.642 261.187 283.855 255.935 285.006L255.279 285.154C253.014 285.686 251.354 286.497 248.041 285.449L246.479 284.941C239.024 282.525 235.07 282.374 227.912 289.377ZM245.693 289.006C250.199 290.488 252.674 290.909 256.082 290.173L257.334 289.89C265.415 288.124 271.602 288.657 288.89 291.688L293.036 292.414C296.239 292.964 298.692 293.351 301.275 293.703C306.964 294.479 311.56 294.153 316.884 293.006L322.317 291.79C323.253 291.595 323.138 291.669 323.476 291.723L323.632 291.742C324.344 291.808 326.758 292.171 327.325 293.81C330.818 303.903 331.833 327.991 328.123 347.821C323.087 374.747 308.635 393.204 287.981 398.811C256.508 407.355 232.846 391.121 216.466 349.196L215.962 347.906L214.604 347.632L213.635 347.431C198.044 344.09 192.778 338.098 198.048 328.343C200.688 323.457 204.304 321.943 207.318 322.965C210.985 324.209 215.605 329.003 220.884 337.375L220.943 337.464C223.259 340.814 226.472 339.53 228.105 335.974C229.123 333.755 230.091 330.043 231.067 324.735L231.263 323.65C231.428 322.634 231.351 321.822 230.501 313.619L230.2 310.681C230.092 309.596 230.001 308.618 229.92 307.674L229.88 307.204C229.546 303.208 229.424 300.025 229.549 297.522C229.677 294.98 230.085 293.355 230.445 293.003L231.048 292.422C236.284 287.465 239.252 286.969 244.609 288.654L245.693 289.006Z" fill="#00160A"/>
<path fill-rule="evenodd" clip-rule="evenodd" d="M261.552 228.222C262.44 228.222 263.34 228.254 264.254 228.315C269.403 228.66 274.046 229.732 281.61 232.049L286.141 233.447C294.026 235.855 296.648 236.42 300.16 236.42C327.398 236.42 341.439 245.659 342.356 260.842C343.058 272.489 334.922 286.344 325.772 291.092C324.528 291.737 322.997 291.252 322.352 290.009C321.707 288.766 322.192 287.235 323.436 286.59C330.833 282.752 337.873 270.763 337.292 261.148C336.572 249.217 325.239 241.645 300.902 241.495L299.717 241.49C295.698 241.447 292.761 240.781 284.323 238.196L280.159 236.91C272.932 234.696 268.578 233.689 263.914 233.376C263.111 233.322 262.324 233.295 261.552 233.295C229.221 233.295 197.372 260.842 192.989 286.59C191.923 292.85 198.75 327.715 197.372 327.966C195.994 328.217 194.673 327.304 194.422 325.926L194.125 324.272C191.185 307.607 188.015 292.558 189.827 284.67C197.165 252.736 226.817 228.222 261.552 228.222Z" fill="#00160A"/>
<path fill-rule="evenodd" clip-rule="evenodd" d="M297.493 301.965C299.016 301.965 299.742 305.368 299.477 306.241C298.323 310.031 301.21 331.632 303.35 337.214L303.451 337.471C306.556 345.198 302.038 350.195 291.805 351.588C290.417 351.777 289.139 350.805 288.95 349.417C288.891 348.984 289.271 347.836 290.226 347.92C297.254 348.533 302.353 342.505 300.85 338.544L300.657 338.053C298.202 331.675 295.441 317.749 295.441 304.536C295.441 303.134 296.158 301.965 297.493 301.965Z" fill="#00160A"/>
<path fill-rule="evenodd" clip-rule="evenodd" d="M200.504 346.692C201.234 348.466 200.64 366.215 209.965 375.838C217.374 383.485 225.8 380.978 227.778 378.61C228.746 377.451 230.554 378.478 231.186 379.728C231.818 380.978 231.317 382.504 230.068 383.136C223.689 386.363 215.197 385.165 209.965 380.687C200.876 372.908 198.893 355.922 198.893 349.897C198.893 347.666 199.853 345.112 200.504 346.692Z" fill="#00160A"/>
<path fill-rule="evenodd" clip-rule="evenodd" d="M306.026 324.525C306.91 323.194 308.206 323.037 309.517 323.581C310.796 324.112 312.054 325.482 312.464 326.402C313.07 327.771 313.078 330.008 312.589 332.137C312.09 334.317 311.084 336.345 309.996 337.261C308.961 338.124 308.093 338.472 307.165 337.103C303.627 331.879 305.685 325.037 306.026 324.525Z" fill="#00160A"/>
<path fill-rule="evenodd" clip-rule="evenodd" d="M266.427 329.579C266.043 328.169 266.068 320.875 268.825 320.875C272.925 320.875 273.448 328.466 272.922 329.999C269.957 338.638 266.811 330.99 266.427 329.579Z" fill="#00160A"/>
<path fill-rule="evenodd" clip-rule="evenodd" d="M301.544 251.062C300.74 249.953 303.914 249.611 305.07 250.402C314.743 257.026 319.713 263.359 319.627 269.676C319.543 275.88 314.508 282.81 304.749 290.803C303.665 291.691 302.067 291.532 301.18 290.448C300.292 289.364 313.862 280.649 314.555 269.607C315.249 258.566 303.053 253.144 301.544 251.062Z" fill="#00160A"/>
<path fill-rule="evenodd" clip-rule="evenodd" d="M316.572 248.379C316.159 246.58 318.781 246.692 320.012 247.361C327.818 251.6 331.837 258.172 331.837 266.759C331.837 275.171 326.149 282.498 317.568 290.984C316.572 291.969 314.967 291.96 313.982 290.964C312.997 289.968 327.832 279.576 327.832 264.593C327.832 249.61 317.133 250.822 316.572 248.379Z" fill="#00160A"/>
<ellipse cx="314.023" cy="347.768" rx="9.63768" ry="3.55072" fill="#00FDDC"/>
<path fill-rule="evenodd" clip-rule="evenodd" d="M303.675 304.994C305.968 304.174 309.134 304.679 313.268 306.375C313.972 306.664 314.655 307.041 315.401 307.534L315.92 307.894C316.88 308.578 318.516 309.797 318.834 310.02C319.873 310.749 320.817 311.321 321.838 311.815C322.812 312.285 324.399 312.719 326.566 313.089C327.394 313.23 327.951 314.016 327.81 314.845C327.669 315.673 318.25 314.342 317.086 313.526L314.69 311.774C314.273 311.47 313.913 311.213 313.724 311.088C313.131 310.696 312.615 310.411 312.113 310.206C308.737 308.821 306.289 308.4 304.855 308.824L304.699 308.874C301.703 308.137 302.883 305.277 303.675 304.994Z" fill="#00160A"/>
<path fill-rule="evenodd" clip-rule="evenodd" d="M228.385 380.055C229.301 379.705 230.327 380.165 230.676 381.081C231.769 383.944 232.411 390.242 232.599 391.91C232.781 393.532 232.781 395.12 232.597 396.672C232.482 397.646 231.599 398.342 230.626 398.227C229.652 398.112 228.956 397.229 229.071 396.255C229.222 394.977 229.222 393.662 229.07 392.307C228.923 390.997 228.354 384.954 227.359 382.346C227.009 381.43 227.468 380.404 228.385 380.055Z" fill="#00160A"/>
<path fill-rule="evenodd" clip-rule="evenodd" d="M228.996 396.698C229.918 395.643 233.024 393.891 232.575 396.458C232.126 399.025 225.7 402.01 225.7 406.948C225.7 414.28 228.527 421.297 238.696 424.23C275.122 434.737 287.968 407.987 288.981 408.955C289.993 409.923 290.029 411.529 289.061 412.541C283.339 418.523 278.726 422.511 275.122 424.539C262.451 431.669 248.697 433.081 237.029 429.021C226.357 425.307 218.91 414.75 223.341 404.39C224.06 402.709 225.911 400.225 228.996 396.698Z" fill="#00160A"/>
<path fill-rule="evenodd" clip-rule="evenodd" d="M483.959 133.5C485.107 132.699 486.688 132.98 487.49 134.128C488.292 135.277 486.995 136.929 485.846 137.731C482.021 140.402 472.804 149.126 470.917 151.124L469.104 153.056C465.543 156.891 423.123 201.002 422.104 200.041C421.17 199.159 462.56 153.645 465.666 150.319L465.783 150.194C468.717 147.063 471.427 144.24 474.021 141.627C476.589 139.039 479.9 136.334 483.959 133.5Z" fill="#E7EAEE"/>
<path fill-rule="evenodd" clip-rule="evenodd" d="M483.959 171.037C485.107 170.235 486.688 170.516 487.49 171.664C488.292 172.813 488.011 174.394 486.862 175.196C483.037 177.867 423.371 238.056 422.104 237.577C420.837 237.098 426.952 229.946 426.952 229.946C430.861 225.856 465.783 188.744 465.783 188.744C468.717 185.614 471.427 182.791 474.021 180.177C476.589 177.59 479.9 173.87 483.959 171.037Z" fill="#00160A"/>
<path fill-rule="evenodd" clip-rule="evenodd" d="M539.991 142.266C540.939 141.235 542.543 141.168 543.574 142.116C544.605 143.064 544.672 144.668 543.724 145.699C543.724 145.699 428.354 276.847 427.304 273.197C426.727 271.189 475.245 212.896 482.877 205.038L484.993 202.898C488.573 199.182 506.293 178.904 539.991 142.266Z" fill="#00160A"/>
<path fill-rule="evenodd" clip-rule="evenodd" d="M273.725 302.045C275.817 301.784 279.434 302.141 283.401 303.388C284.737 303.808 285.48 305.232 285.06 306.568C284.64 307.904 283.217 308.647 281.88 308.227C278.515 307.17 275.919 306.628 274.158 306.582L273.725 306.581C273.108 306.596 272.658 306.703 270.91 307.372L268.281 308.399C265.762 309.392 263.908 309.976 261.855 310.314C259.539 310.694 256.046 310.539 251.248 309.887C249.86 309.698 247.487 308.051 249.077 307.032C250.666 306.012 257.387 307.124 260.538 306.568C263.69 306.012 269.671 302.55 273.725 302.045Z" fill="#00160A"/>
<path fill-rule="evenodd" clip-rule="evenodd" d="M165.335 475.8C176.756 475.6 181.623 478.776 180.572 479.804C180.572 479.804 168.44 478.879 165.335 478.776C162.053 478.667 147.028 478.44 146.614 477.102C146.457 476.593 146.468 476.073 146.615 475.6C146.769 475.106 149.722 475.409 154.828 475.638C157.691 475.767 161.231 475.872 165.335 475.8Z" fill="#00160A"/>
<path fill-rule="evenodd" clip-rule="evenodd" d="M183.391 537.159C183.391 537.159 182.364 585.579 189.237 589.526C190.187 590.072 190.083 592.173 189.039 593.108C187.995 594.042 186.392 593.953 185.458 592.91C179.142 585.855 177.49 565.94 179.987 536.63C180.101 535.29 183.51 535.763 183.391 537.159Z" fill="#00160A"/>
<path fill-rule="evenodd" clip-rule="evenodd" d="M342.592 564.722L342.455 564.731L334.361 565.479C283.775 570.212 252.161 574.877 227.316 579.48L224.982 579.919C212.995 582.214 203.153 584.499 197.433 586.805C190.279 589.688 183.842 593.127 186.125 597.416C190.104 604.889 198.478 607.818 216.821 609.849L218.777 610.056C232.957 611.503 248.197 611.854 286.832 612.05L300.033 612.126C347.129 612.441 374.364 614.133 409.632 616.295L413.227 616.519C478.173 620.619 530.014 619.962 568.75 615.417L569.92 615.278C601.216 611.516 622.331 605.294 631.516 598.235C636.923 594.079 637.75 589.915 637.899 586.062C638.034 582.599 630.085 577.368 625.545 575.648C612.897 570.86 608.77 569.123 584.454 566.671C536.428 561.829 456.506 560.506 342.592 564.722ZM584.96 570.704L586.554 570.868C609.222 573.239 624.103 576.66 630.968 580.961L631.396 581.238C636.667 584.742 636.002 588.39 628.425 594.213C620.141 600.58 599.78 606.58 569.314 610.241C531.174 614.826 479.897 615.566 415.502 611.579L408.751 611.159C371.574 608.904 343.051 608.296 290.26 608.01L275.688 607.926C244.259 607.706 230.9 607.273 218.005 605.89L216.779 605.754C200.611 603.906 191.677 600.527 188.683 595.231L188.574 595.032C188.517 594.925 188.517 594.927 188.951 594.486C189.82 593.605 191.604 592.579 194.257 591.509L194.944 591.239C200.694 589.027 209.782 586.759 222.154 584.467L224.497 584.04C249.196 579.604 286.028 575.094 334.971 570.517L342.842 569.789L349.562 569.544C459.693 565.597 538.18 565.987 584.96 570.704Z" fill="#00160A"/>
<path d="M469.57 521.277C468.643 555.07 465.997 577.58 461.495 585.456C457.687 592.12 444.9 594.383 428.691 593.286L422.856 592.863C414.93 592.269 410.51 591.836 406.249 591.178L405.669 591.087C398.812 589.991 394.288 588.478 391.752 586.019C382.394 576.946 377.433 556.844 376.485 525.53C376.443 524.13 380.155 525.419 381.555 525.377C381.846 525.368 398.59 527.388 421.638 526.313C435.305 525.676 469.57 521.277 469.57 521.277Z" fill="white"/>
<path fill-rule="evenodd" clip-rule="evenodd" d="M379.348 525.147C380.275 558.94 388.242 578.58 392.743 586.456C396.552 593.12 409.339 595.383 425.547 594.286L431.383 593.863C439.308 593.269 410.231 584.609 400.191 573.641C388.931 561.339 379.348 525.147 379.348 525.147Z" fill="#E7EAEE"/>
<path fill-rule="evenodd" clip-rule="evenodd" d="M386.203 535.613C386.393 534.225 388.103 531.851 389.059 533.444C390.015 535.037 390.443 538.901 392.431 543.835L396.649 552.014C397.022 552.939 397.361 553.797 397.68 554.624L397.868 555.117C399.772 560.111 400.939 563.037 401.354 566.361C401.527 567.751 400.541 569.019 399.151 569.192C397.761 569.366 396.494 568.38 396.32 566.99C395.967 564.162 395.913 560.554 394.143 555.909L393.772 554.946C393.518 554.292 393.248 553.614 392.957 552.891L390.028 545.773C389.521 544.527 389.13 543.537 388.785 542.619L388.509 541.873C387.455 538.973 386 537.098 386.203 535.613Z" fill="#00160A"/>
<path fill-rule="evenodd" clip-rule="evenodd" d="M319.428 376.435C317.867 377.621 319.774 379.296 320.385 381.12C320.524 381.536 320.701 381.964 320.935 382.466L321.221 383.06L321.868 384.349L322.136 384.896C322.424 385.494 322.629 385.965 322.791 386.412C323.294 387.797 323.247 388.42 322.774 388.842C320.11 391.22 317.28 392.811 311.857 395.213L308.863 396.523C299.835 400.512 293.811 403.159 290.416 408.558C285.935 415.683 287.13 425.896 290.255 440.768L290.402 441.457C291.001 444.229 289.85 449.29 289.023 456.96L288.963 457.512C288.624 460.578 288.187 464.01 287.59 468.366L285.207 485.272C284.307 491.738 283.637 496.881 283.057 501.918L282.838 503.863C281.093 519.61 280.59 531.993 281.601 542.051C282.477 550.776 287.587 563.258 293.617 569.222C302.476 577.984 311.281 573.834 319.248 555.715C322.809 547.616 325.01 540.015 326.062 532.288C327.469 521.956 326.892 511.423 324.44 497.215L324.185 495.77C322.508 486.56 315.181 452.623 314.307 448.318L314.024 446.948L312.162 438.273C312.043 437.706 311.931 437.171 311.823 436.645L311.478 434.926C309.937 427.095 309.402 421.898 309.982 418.534C310.037 418.217 310.305 417.751 310.853 417.159C311.707 416.237 313.063 415.197 315.059 413.911L315.947 413.351C317.816 412.199 322.263 409.553 322.294 409.534L323.25 408.948C332.641 403.137 337.057 398.581 337.057 392.132C337.057 385.725 334.354 380.829 329.966 377.907C326.318 375.478 321.723 374.691 319.428 376.435ZM324.544 382.42L323.672 380.666L323.574 380.647C324.709 380.841 325.986 381.351 327.154 382.129C330.15 384.124 331.985 387.447 331.985 392.132C331.985 396.14 328.446 399.765 320.543 404.658L319.161 405.496C317.81 406.302 314.11 408.511 312.829 409.316L312.723 409.383C310.176 411 308.406 412.336 307.131 413.713C305.972 414.965 305.228 416.258 304.984 417.672C304.232 422.029 304.889 427.964 306.73 437.053L307.198 439.315L308.904 447.251L309.861 451.842C311.818 461.107 317.856 489.215 319.24 496.928L319.285 497.183C321.787 511.383 322.391 521.652 321.036 531.603C320.05 538.85 317.98 545.997 314.605 553.673C310.961 561.961 307.298 566.603 303.929 568.027C301.409 569.092 298.884 568.3 296.169 565.615C291.061 560.563 286.4 549.178 285.633 541.544C284.666 531.911 285.157 519.833 286.867 504.404L287.082 502.498C287.682 497.29 288.38 491.954 289.335 485.122L291.415 470.398L291.862 467.134C292.307 463.83 292.655 461.061 292.938 458.539L293.116 456.898C293.924 449.22 294.057 444.032 293.383 440.637L293.331 440.385C290.289 426.315 289.966 417.189 293.695 411.259C296.336 407.059 300.647 404.83 308.456 401.353L311.936 399.827C317.793 397.231 320.966 395.444 324.123 392.626C326.456 390.544 326.664 387.802 325.53 384.68C325.272 383.971 324.97 383.288 324.544 382.42Z" fill="#00160A"/>
<path d="M324.544 382.42L323.671 380.666L323.574 380.647C324.709 380.841 325.986 381.351 327.154 382.129C330.15 384.124 331.985 387.447 331.985 392.132C331.985 396.14 328.446 399.765 320.543 404.658L319.161 405.496C317.81 406.302 314.11 408.511 312.829 409.316L312.723 409.383C310.176 411 308.406 412.336 307.131 413.713C305.972 414.965 305.228 416.258 304.984 417.672C304.232 422.029 304.889 427.964 306.73 437.053L307.198 439.315L308.904 447.251L309.861 451.842C311.818 461.107 317.856 489.215 319.24 496.928L319.285 497.183C321.787 511.383 322.391 521.652 321.036 531.603C320.05 538.85 317.98 545.997 314.605 553.673C310.961 561.961 307.298 566.603 303.929 568.027C301.409 569.092 298.884 568.3 296.169 565.615C291.061 560.563 286.4 549.178 285.633 541.544C284.666 531.911 285.157 519.833 286.867 504.404L287.082 502.498C287.682 497.29 288.38 491.954 289.335 485.122L291.415 470.398L291.862 467.134C292.307 463.83 292.654 461.061 292.938 458.539L293.116 456.898C293.924 449.22 294.057 444.032 293.383 440.637L293.331 440.386C290.288 426.315 289.966 417.189 293.695 411.259C296.336 407.059 300.647 404.83 308.456 401.353L311.936 399.827C317.793 397.231 320.966 395.444 324.123 392.626C326.456 390.544 326.664 387.802 325.53 384.68C325.272 383.971 324.97 383.288 324.544 382.42Z" fill="white"/>
<path fill-rule="evenodd" clip-rule="evenodd" d="M308.143 416.434C308.836 415.217 310.385 414.792 311.602 415.485C326.243 423.824 334.632 433.863 336.519 445.608C338.336 456.922 326.491 515.793 325.122 515.496C323.753 515.199 322.884 513.849 323.181 512.48L323.821 509.499C330.594 477.696 333.142 456.567 331.511 446.413C329.899 436.377 322.509 427.535 309.091 419.893C307.874 419.2 307.45 417.651 308.143 416.434Z" fill="#00160A"/>
<path fill-rule="evenodd" clip-rule="evenodd" d="M314.168 382.505C315.347 381.748 316.916 382.089 317.673 383.268C318.977 385.298 319.759 386.951 320.003 388.362C320.243 389.753 320.081 391.619 319.572 394.101C319.29 395.473 317.949 396.357 316.577 396.075C315.935 395.944 315.4 395.58 315.041 395.089C314.633 394.532 317.033 393.081 317.033 389.227C317.033 385.372 312.99 383.262 314.168 382.505Z" fill="#00160A"/>
<path fill-rule="evenodd" clip-rule="evenodd" d="M313.242 386.414C313.856 385.902 314.397 387.835 314.277 388.789C314.097 390.232 314.097 395.417 312.057 397.866C311.249 398.836 309.928 399.651 308.668 399.039C308.111 398.769 309.848 396.348 310.903 393.613C311.667 391.631 312.263 389.508 312.668 388.084C312.968 387.028 312.606 386.945 313.242 386.414Z" fill="#00160A"/>
<path fill-rule="evenodd" clip-rule="evenodd" d="M467.097 518.561C468.497 518.596 469.604 519.76 469.569 521.16L469.514 523.245C468.587 557.039 465.997 577.58 461.495 585.456C457.687 592.12 444.9 594.383 428.691 593.286L422.856 592.863C414.93 592.269 410.51 591.836 406.249 591.178L405.669 591.087C398.812 589.991 394.288 588.478 391.752 586.019C382.394 576.946 377.433 556.844 376.485 525.53C376.443 524.13 377.544 522.961 378.944 522.918C380.344 522.876 381.513 523.977 381.555 525.377L381.615 527.168C382.655 556.208 387.332 574.668 395.283 582.377L395.474 582.554C398.403 585.148 405.666 586.433 422.511 587.745L428.496 588.188L429.537 588.258C443.527 589.133 454.699 587.125 457.092 582.939C461.089 575.945 463.646 555.102 464.498 521.033C464.533 519.633 465.697 518.526 467.097 518.561Z" fill="#00160A"/>
<path fill-rule="evenodd" clip-rule="evenodd" d="M375.051 424.453C375.537 423.139 383.632 425.149 385.783 426.408C386.572 426.87 404.625 435.337 409.823 438.593C416.42 442.726 421.058 460.532 419.493 480.519C419.263 483.462 417.488 486.705 414.273 490.402C413.354 491.459 411.752 491.57 410.695 490.651C409.638 489.732 409.527 488.13 410.446 487.073C413.013 484.121 414.309 481.754 414.436 480.123L414.516 479.035C415.73 461.288 412.597 444.676 408.328 442.001L407.498 441.49C403.462 439.045 400.996 438.241 396.059 437.323C396.059 437.323 388.358 431.116 385.32 429.381C378.584 425.534 374.828 425.056 375.051 424.453Z" fill="#00160A"/>
<path fill-rule="evenodd" clip-rule="evenodd" d="M443.246 403.493C444.24 404.48 423.225 422.509 422.104 423.52C418.666 426.621 416.535 433.66 417.408 442.781L417.458 443.283C417.636 444.988 418.238 451.875 418.263 452.842L418.329 454.26C418.36 454.756 418.406 455.28 418.499 456.182L418.993 460.728C419.821 468.259 420.04 473.531 419.493 480.519C419.263 483.462 417.488 486.705 414.273 490.402C413.354 491.459 411.752 491.57 410.695 490.651C409.638 489.732 416.213 480.806 416.341 479.176C416.838 472.822 413.416 456.343 413.416 456.343C413.271 454.899 413.252 454.431 413.201 453.23C413.135 451.688 413.282 450.48 413.728 448.286L414.078 446.596C414.438 444.8 414.537 443.893 414.456 442.946L414.442 442.796C413.84 437.029 414.179 432.358 415.334 428.597C416.373 425.214 418.072 422.568 420.339 420.522C421.334 419.625 422.346 418.917 423.555 418.208L424.984 417.394C425.161 417.29 425.276 417.216 425.347 417.164L425.556 417.005C427.538 415.468 442.252 402.506 443.246 403.493Z" fill="#00160A"/>
<path fill-rule="evenodd" clip-rule="evenodd" d="M466.767 441.657C467.11 443.016 433.283 454.34 428.785 458.195C422.626 463.474 419.335 471.141 420.277 477.988L420.334 478.368C420.948 482.174 419.368 486.161 413.991 490.679C412.919 491.58 411.319 491.441 410.418 490.369C409.517 489.296 409.656 487.697 410.728 486.795C414.854 483.329 416.582 480.672 416.341 479.176C414.925 470.394 418.945 460.817 426.499 454.344C431.973 449.652 466.424 440.299 466.767 441.657Z" fill="#00160A"/>
<path fill-rule="evenodd" clip-rule="evenodd" d="M363.238 417.606C374.423 415.109 384.129 415.109 392.341 417.659C401.15 420.395 405.752 426.599 405.752 435.757C405.752 436.247 405.613 436.705 405.372 437.093L405.259 437.258L405.343 437.386C405.482 437.611 405.588 437.86 405.652 438.129L405.685 438.293C405.92 439.673 404.992 440.984 403.611 441.219L402.308 441.437C388.986 443.618 380.267 443.59 375.743 441.091C371.148 438.553 366.506 431.936 361.49 421.151C360.808 419.682 361.657 417.959 363.238 417.606ZM390.837 422.503C384.395 420.503 376.753 420.27 367.9 421.842L367.484 421.917L367.575 422.1C371.493 429.957 375.044 434.792 378.011 436.546L378.196 436.651C381.18 438.299 388.288 438.417 399.19 436.791L400.803 436.541L400.763 436.406C400.722 436.25 400.696 436.089 400.685 435.924L400.68 435.757C400.68 428.828 397.53 424.582 390.837 422.503Z" fill="#00160A"/>
<path fill-rule="evenodd" clip-rule="evenodd" d="M450.792 391.175C452.082 391.197 453.15 392.184 453.273 393.469C454.166 402.8 452.999 409.89 449.603 414.715C445.94 419.92 438.859 421.562 428.691 420.047C427.361 419.849 426.427 418.652 426.537 417.331L426.547 417.245L426.419 417.21C425.852 417.03 425.347 416.653 425.018 416.113L424.933 415.961C421.425 409.214 423.061 402.943 429.503 397.934C435.336 393.398 442.269 391.142 450.209 391.169L450.792 391.175ZM448.424 396.672L448.402 396.28L448.393 396.28C442.331 396.571 437.095 398.456 432.617 401.938C428.044 405.494 427.096 409.126 429.433 413.621C429.649 414.035 429.739 414.482 429.717 414.917L429.704 415.067L429.906 415.098C437.952 416.226 442.993 415.064 445.323 411.976L445.455 411.795C447.741 408.547 448.769 403.511 448.424 396.672Z" fill="#00160A"/>
<path d="M236.885 508.625C239.898 508.726 241.029 512.1 239.274 515.49C238.06 517.837 235.09 520.305 232.023 521.756C230.271 522.585 228.241 522.693 225.983 522.124C225.168 521.919 224.674 521.092 224.879 520.277C225.084 519.462 225.911 518.967 226.726 519.173C228.34 519.579 227.085 517.341 226.992 516.506C226.9 515.671 227.502 514.919 228.338 514.826C229.868 514.657 230.668 513.865 231.445 513.333C231.663 513.184 231.947 512.887 232.346 512.388L232.798 511.803L232.955 511.596C234.671 509.316 235.343 508.624 236.728 508.622L236.885 508.625Z" fill="white"/>
<path fill-rule="evenodd" clip-rule="evenodd" d="M236.885 508.625C239.898 508.726 241.029 512.1 239.274 515.49C238.06 517.837 235.09 520.305 232.023 521.756C230.271 522.585 228.241 522.693 225.983 522.124C225.168 521.919 224.674 521.092 224.879 520.277C225.084 519.462 225.911 518.967 226.726 519.173C228.34 519.579 229.655 519.509 230.721 519.005C233.237 517.814 235.706 515.763 236.571 514.091C237.07 513.128 237.177 512.374 237.026 511.923C236.993 511.825 236.958 511.762 236.918 511.723L236.879 511.692L236.826 511.733C236.782 511.767 236.732 511.81 236.677 511.861L236.592 511.944C236.338 512.199 236.106 512.478 235.655 513.07L235.047 513.874C234.302 514.848 233.782 515.422 233.164 515.845C231.929 516.69 230.662 517.631 228.672 517.851C227.837 517.944 227.085 517.341 226.992 516.506C226.9 515.671 227.502 514.919 228.338 514.826C229.868 514.657 230.668 513.865 231.445 513.333C231.663 513.184 231.947 512.887 232.346 512.388L232.798 511.803L232.955 511.596C234.671 509.316 235.343 508.624 236.728 508.622L236.885 508.625Z" fill="#00160A"/>
<path fill-rule="evenodd" clip-rule="evenodd" d="M237.974 515.408C239.823 515.47 240.502 517.092 240.353 518.991C240.242 520.408 239.67 521.924 238.803 522.891C237.705 524.115 236.172 525.167 234.095 526.251L233.673 526.469C232.923 526.849 232.405 527.094 231.034 527.729C229.352 528.507 227.111 528.786 224.293 528.613C223.454 528.562 222.815 527.841 222.867 527.002C222.918 526.163 223.639 525.524 224.478 525.576C226.837 525.72 228.602 525.5 229.755 524.967L231.185 524.299C231.602 524.101 231.92 523.945 232.296 523.754C234.28 522.748 235.676 521.819 236.537 520.859C236.891 520.464 237.201 519.688 237.298 518.953L237.319 518.753L237.321 518.712L237.203 518.783C236.909 519.072 233.216 521.294 232.817 521.373C227.621 522.407 228.568 521.994 226.578 522.214C225.743 522.306 224.991 521.704 224.899 520.869C224.806 520.034 225.408 519.281 226.244 519.189C226.794 519.128 227.828 520.11 228.974 520.019C229.954 519.941 232.379 518.695 232.379 518.695L233.425 517.822C233.683 517.608 233.907 517.425 234.123 517.254L234.636 516.857C235.96 515.861 236.939 515.373 237.974 515.408Z" fill="#00160A"/>
<path fill-rule="evenodd" clip-rule="evenodd" d="M232.654 530.227C234.717 529.475 236.41 531.322 237.204 533.086C238.065 535.001 237.008 536.69 235.009 537.925C233.654 538.763 231.813 539.401 230.44 539.556C228.503 539.775 226.201 539.128 223.484 537.681C222.742 537.287 222.461 536.365 222.856 535.623C223.251 534.881 224.172 534.6 224.914 534.995C227.138 536.179 228.883 536.669 230.098 536.532C231.024 536.428 232.435 535.938 233.409 535.337C233.893 535.037 235.962 533.086 233.695 533.086C232.84 533.086 231.864 532.612 231.745 532.177C231.625 531.742 231.864 530.514 232.654 530.227Z" fill="#00160A"/>
<path fill-rule="evenodd" clip-rule="evenodd" d="M261.63 498.077C261.96 497.91 262.457 498.2 262.499 498.551L262.5 498.627L262.382 499.823L265.894 498.076C266.076 497.978 266.368 498.041 266.588 498.214L266.667 498.285C266.867 498.485 266.902 498.722 266.759 498.849L266.697 498.892L262.036 501.113C261.658 501.278 261.134 500.988 261.122 500.638L261.127 500.562L260.955 499.823L257.384 501.112C257.016 501.265 256.563 501.032 256.537 500.706L256.539 500.629L256.463 499.717L252.088 501.115C251.677 501.269 251.257 501.008 251.322 500.67L251.343 500.597L251.403 499.717L247.894 500.961C247.489 501.119 247.102 500.9 247.16 500.577L247.181 500.5L247.381 499.594L244.147 500.516C243.765 500.648 243.438 500.471 243.481 500.181L243.499 500.106L243.847 499.098L241.255 499.717C240.974 499.783 240.751 499.684 240.719 499.493L240.717 499.417C240.735 499.204 240.95 498.98 241.215 498.881L241.315 498.85L244.566 498.05C244.892 497.968 245.139 498.144 245.106 498.409L245.09 498.484L244.81 499.387L248.302 498.074C248.667 497.931 249.005 498.15 248.96 498.467L248.943 498.542L248.546 499.751L252.427 498.082C252.796 497.913 253.199 498.173 253.157 498.518L253.141 498.592L252.726 499.881L257.03 498.074C257.357 497.927 257.771 498.159 257.813 498.484L257.815 498.56L257.722 499.903L261.63 498.077Z" fill="#00FDDC"/>
<ellipse cx="268.421" cy="344.727" rx="10.4907" ry="2.94753" transform="rotate(8.98977 268.421 344.727)" fill="#00FDDC"/>
<path fill-rule="evenodd" clip-rule="evenodd" d="M185.275 412.203L187.106 416.051L191.214 417.186L188.12 420.116L188.31 424.373L184.567 422.336L180.577 423.832L181.358 419.643L178.701 416.311L182.927 415.759L185.275 412.203Z" fill="#00160A"/>
<path fill-rule="evenodd" clip-rule="evenodd" d="M214.921 405.098L216.244 408.038L219.232 408.895L216.971 411.146L217.099 414.403L214.379 412.854L211.469 414.009L212.049 410.802L210.123 408.259L213.202 407.825L214.921 405.098Z" fill="#00160A"/>
<path fill-rule="evenodd" clip-rule="evenodd" d="M235.211 465.968L236.534 468.907L239.522 469.765L237.261 472.015L237.388 475.273L234.668 473.724L231.759 474.879L232.339 471.671L230.413 469.128L233.491 468.695L235.211 465.968Z" fill="#00160A"/>
<path fill-rule="evenodd" clip-rule="evenodd" d="M323.472 445.678L324.795 448.618L327.782 449.475L325.522 451.726L325.649 454.983L322.929 453.434L320.02 454.589L320.6 451.381L318.674 448.838L321.752 448.405L323.472 445.678Z" fill="#00160A"/>
<path fill-rule="evenodd" clip-rule="evenodd" d="M192.602 543.069L193.925 546.009L196.913 546.867L194.652 549.117L194.78 552.374L192.06 550.825L189.151 551.98L189.73 548.773L187.805 546.23L190.883 545.796L192.602 543.069Z" fill="#00160A"/>
<path fill-rule="evenodd" clip-rule="evenodd" d="M191.658 569.448L193.275 573.042L196.927 574.09L194.164 576.84L194.32 580.821L190.995 578.928L187.44 580.34L188.148 576.419L185.795 573.311L189.557 572.782L191.658 569.448Z" fill="#00160A"/>
<path fill-rule="evenodd" clip-rule="evenodd" d="M222.093 554.231L223.71 557.824L227.362 558.872L224.599 561.623L224.755 565.604L221.43 563.71L217.875 565.123L218.583 561.202L216.23 558.094L219.992 557.564L222.093 554.231Z" fill="#00160A"/>
<path fill-rule="evenodd" clip-rule="evenodd" d="M262.673 542.057L264.29 545.65L267.942 546.698L265.179 549.449L265.334 553.43L262.01 551.536L258.454 552.949L259.162 549.028L256.809 545.92L260.571 545.39L262.673 542.057Z" fill="#00160A"/>
<path fill-rule="evenodd" clip-rule="evenodd" d="M202.522 456.841L204.353 460.689L208.46 461.823L205.366 464.754L205.556 469.011L201.813 466.974L197.823 468.47L198.604 464.281L195.948 460.948L200.173 460.396L202.522 456.841Z" fill="#00160A"/>
<path fill-rule="evenodd" clip-rule="evenodd" d="M207.594 428.435L209.425 432.283L213.533 433.418L210.439 436.348L210.629 440.605L206.886 438.568L202.896 440.064L203.676 435.875L201.02 432.543L205.246 431.991L207.594 428.435Z" fill="#00160A"/>
<path fill-rule="evenodd" clip-rule="evenodd" d="M253.246 445.681L255.077 449.529L259.185 450.664L256.091 453.594L256.281 457.851L252.538 455.814L248.548 457.311L249.329 453.121L246.672 449.789L250.898 449.237L253.246 445.681Z" fill="#00160A"/>
<path fill-rule="evenodd" clip-rule="evenodd" d="M279.623 432.493L281.454 436.341L285.562 437.476L282.467 440.406L282.658 444.663L278.915 442.626L274.925 444.122L275.705 439.933L273.049 436.601L277.275 436.049L279.623 432.493Z" fill="#00160A"/>
<path fill-rule="evenodd" clip-rule="evenodd" d="M271.507 473.072L273.338 476.921L277.446 478.055L274.352 480.986L274.542 485.243L270.799 483.206L266.809 484.702L267.589 480.513L264.933 477.18L269.159 476.628L271.507 473.072Z" fill="#00160A"/>
<path fill-rule="evenodd" clip-rule="evenodd" d="M204.551 486.261L206.381 490.109L210.489 491.244L207.395 494.174L207.585 498.431L203.842 496.394L199.852 497.89L200.633 493.701L197.977 490.369L202.202 489.817L204.551 486.261Z" fill="#00160A"/>
<path fill-rule="evenodd" clip-rule="evenodd" d="M178.434 441.621L180.073 444.899L183.73 445.876L180.986 448.36L181.167 451.982L177.832 450.239L174.287 451.501L174.97 447.939L172.598 445.097L176.355 444.639L178.434 441.621Z" fill="#00160A"/>
<path fill-rule="evenodd" clip-rule="evenodd" d="M160.174 462.925L161.813 466.204L165.469 467.18L162.725 469.664L162.906 473.286L159.571 471.543L156.026 472.805L156.709 469.244L154.337 466.402L158.094 465.944L160.174 462.925Z" fill="#00160A"/>
<path fill-rule="evenodd" clip-rule="evenodd" d="M293.224 409.736C293.273 411.136 292.088 412.308 290.687 412.273C283.69 412.095 282.578 400.064 283.249 400.015C284.178 399.948 285.765 405.663 288.89 407.745C291.272 409.332 293.087 405.879 293.224 409.736Z" fill="#00160A"/>
<path fill-rule="evenodd" clip-rule="evenodd" d="M446.753 434.665C463.25 429.162 477.445 428.957 489.258 434.162C491.434 435.121 491.213 438.278 488.924 438.924L488.053 439.175C484.656 440.181 482.286 441.171 481.01 442.07L480.753 442.26L480.65 442.34C479.687 443.092 478.659 444.073 477.308 445.505L473.225 449.934C473.035 450.138 472.87 450.314 472.741 450.45C467.254 456.214 462.488 459.584 456.333 461.054C447.905 463.066 438.961 462.088 429.562 458.172C428.807 457.857 428.285 457.221 428.088 456.489L428.083 456.469L427.95 456.411C427.041 455.971 426.456 455.014 426.524 453.966L426.54 453.8C427.674 445.09 434.577 438.726 446.753 434.665ZM479.95 436.45C470.896 434.476 460.378 435.467 448.358 439.476C438.521 442.758 433.134 447.351 431.791 453.222L431.715 453.573L432.101 453.731C440.133 456.971 447.629 457.791 454.642 456.238L455.154 456.12C460.011 454.96 463.956 452.238 468.639 447.398L469.286 446.721C470.388 445.546 472.987 442.699 473.306 442.357C474.97 440.575 476.242 439.346 477.528 438.342L477.807 438.128C478.459 437.638 479.25 437.164 480.185 436.702L480.465 436.566L479.95 436.45Z" fill="#00160A"/>
<path fill-rule="evenodd" clip-rule="evenodd" d="M483.959 130.457C485.107 129.655 486.688 129.936 487.49 131.085C488.292 132.233 486.995 133.885 485.846 134.687C482.021 137.358 472.804 146.083 470.917 148.081L469.104 150.012C465.543 153.847 423.123 197.959 422.104 196.997C421.17 196.116 462.56 150.602 465.666 147.276L465.783 147.15C468.717 144.02 471.427 141.197 474.021 138.583C476.589 135.995 479.9 133.29 483.959 130.457Z" fill="#00160A"/>
<path fill-rule="evenodd" clip-rule="evenodd" d="M478.818 298.947C474.172 303.155 475.12 317.208 481.169 341.941C481.453 343.101 482.912 343.481 483.725 342.606L484.735 341.513C495.028 330.294 500.936 321.515 502.463 315.036C503.401 311.054 502.449 308.42 499.278 308.42L499.077 308.424C497.177 308.501 494.567 309.655 491.106 311.876L490.638 312.18L490.63 312.141C489.448 306.482 488.098 302.505 486.528 300.156C484.406 296.982 481.529 296.491 478.818 298.947ZM484.034 301.823C485.522 304.049 486.913 308.458 488.131 314.968C488.332 316.04 489.572 316.546 490.465 315.921C494.765 312.914 497.793 311.42 499.278 311.42C499.906 311.42 500.104 311.967 499.543 314.348L499.473 314.633C498.054 320.182 492.873 327.987 483.933 337.934L483.426 338.495L483.119 337.182C478.275 316.288 477.65 304.052 480.832 301.17C482.135 299.99 482.895 300.12 484.034 301.823Z" fill="#00FDDC"/>
<path fill-rule="evenodd" clip-rule="evenodd" d="M450.219 332.716C449.251 334.138 448.498 336.374 447.914 339.475L447.837 339.893L447.631 339.764L446.941 339.347C444.583 337.95 442.812 337.23 441.496 337.175C438.674 337.059 437.959 339.361 438.927 342.571C440.516 347.751 445.931 354.286 454.557 361.388C455.427 362.105 456.748 361.641 456.978 360.537L457.211 359.409C460.354 343.969 460.344 335.361 456.717 332.178L456.585 332.065C454.376 330.162 452.009 330.266 450.352 332.527L450.219 332.716ZM454.749 334.443C457.041 336.518 457.152 343.779 454.705 356.611L454.541 357.451L454.224 357.176C447.327 351.169 443.042 345.758 441.797 341.698L441.736 341.49C441.585 340.952 441.513 340.532 441.501 340.251L441.499 340.183L441.598 340.196C442.73 340.375 444.966 341.526 448.118 343.656C449.038 344.277 450.291 343.719 450.443 342.619L450.569 341.76C451.147 337.985 451.909 335.478 452.772 334.3C453.307 333.57 453.643 333.522 454.518 334.246L454.749 334.443Z" fill="#00FDDC"/>
</svg>
